<svg xmlns="http://www.w3.org/2000/svg" xmlns:xlink="http://www.w3.org/1999/xlink" id="e7k9lU3xMdg1" shape-rendering="geometricPrecision" text-rendering="geometricPrecision" viewBox="0 0 350 350"><style>@keyframes e7k9lU3xMdg2_to__to{0%,43.333333%,50%,93.333333%{transform:translate(174.981003px,288.977005px)}10%,33.333333%,60%,83.333333%{transform:translate(174.981003px,247.980011px)}}@keyframes e7k9lU3xMdg2_c_o{0%,43.333333%,50%,93.333333%{opacity:.62}10%,33.333333%,60%,83.333333%{opacity:1}}@keyframes e7k9lU3xMdg5_to__to{0%,10%,33.333333%,60%,83.333333%{transform:translate(174.981003px,102.020008px)}20%,23.333333%,70%,73.333333%{transform:translate(174.981003px,61.880268px)}}@keyframes e7k9lU3xMdg5_c_o{0%,10%,33.333333%,60%,83.333333%{opacity:1}20%,23.333333%,70%,73.333333%{opacity:.62}}#e7k9lU3xMdg2_to{animation:e7k9lU3xMdg2_to__to 3000ms linear infinite normal forwards}#e7k9lU3xMdg2{animation:e7k9lU3xMdg2_c_o 3000ms linear infinite normal forwards}#e7k9lU3xMdg5_to{animation:e7k9lU3xMdg5_to__to 3000ms linear infinite normal forwards}#e7k9lU3xMdg5{animation:e7k9lU3xMdg5_c_o 3000ms linear infinite normal forwards}</style><g id="e7k9lU3xMdg2_to" transform="translate(174.981003,288.977005)"><path id="e7k9lU3xMdg2" fill="#1BA5F8" stroke="none" stroke-width="1" d="M129.468,282.754L167.311,236.111C171.264,231.239,178.698,231.239,182.651,236.111L220.494,282.754C223.436,286.381,223.436,291.573,220.494,295.2L182.651,341.843C178.698,346.715,171.264,346.715,167.311,341.843L129.468,295.2C126.526,291.573,126.526,286.381,129.468,282.754Z" opacity=".62" transform="translate(-174.981003,-288.977005)"/></g><path id="e7k9lU3xMdg3" fill="#1BA5F8" stroke="none" stroke-width="1" d="M188.611,168.697L226.454,122.055C230.407,117.182,237.841,117.182,241.794,122.055L279.637,168.697C282.579,172.324,282.579,177.517,279.637,181.143L241.794,227.786C237.841,232.659,230.407,232.659,226.454,227.786L188.611,181.143C185.669,177.517,185.669,172.324,188.611,168.697Z"/><path id="e7k9lU3xMdg4" fill="#1BA5F8" stroke="none" stroke-width="1" d="M70.362,168.697L108.204,122.055C112.157,117.182,119.592,117.182,123.545,122.055L161.387,168.697C164.33,172.324,164.33,177.517,161.387,181.143L123.545,227.786C119.592,232.659,112.157,232.659,108.204,227.786L70.362,181.143C67.4194,177.517,67.4194,172.324,70.362,168.697Z"/><g id="e7k9lU3xMdg5_to" transform="translate(174.981003,102.020008)"><path id="e7k9lU3xMdg5" fill="#1BA5F8" stroke="none" stroke-width="1" d="M129.468,95.7971L167.311,49.1541C171.264,44.282,178.698,44.282,182.651,49.1541L220.494,95.7971C223.436,99.424,223.436,104.616,220.494,108.243L182.651,154.886C178.698,159.758,171.264,159.758,167.311,154.886L129.468,108.243C126.526,104.616,126.526,99.424,129.468,95.7971Z" transform="translate(-174.981003,-102.020008)"/></g></svg>